PathFileType	4	(X/Y/Z)	S01_Demo_SingleTrial_0-100.trc
DataRate	CameraRate	NumFrames	NumMarkers	Units	OrigDataRate	OrigDataStartFrame	OrigNumFrames
60	60	7	21	m	60	37	100
Frame#	Time	RHip			RKnee			RAnkle			RBigToe			RSmallToe			RHeel			LHip			LKnee			LAnkle			LBigToe			LSmallToe			LHeel			Neck			Head			Nose			RShoulder			RElbow			RWrist			LShoulder			LElbow			LWrist		
		X1	Y1	Z1	X2	Y2	Z2	X3	Y3	Z3	X4	Y4	Z4	X5	Y5	Z5	X6	Y6	Z6	X7	Y7	Z7	X8	Y8	Z8	X9	Y9	Z9	X10	Y10	Z10	X11	Y11	Z11	X12	Y12	Z12	X13	Y13	Z13	X14	Y14	Z14	X15	Y15	Z15	X16	Y16	Z16	X17	Y17	Z17	X18	Y18	Z18	X19	Y19	Z19	X20	Y20	Z20	X21	Y21	Z21
38	0.6333333333333333	-0.23141631492380854	0.930921933165652	-1.1729292381354515	-0.5034530313197502	0.6717422411305846	-1.0219980506252098	-0.6658962661003243	0.326552222567423	-1.0927203474680829	-0.7384363821780505	0.2818470239774191	-1.0034876047865215	-0.7113271701935643	0.2164305690609107	-0.9938595049196004	-0.6676053116590384	0.2836126178105731	-1.1338039350733358	-0.021742730392617482	0.8652713721820745	-1.1204807549839335	-0.08237866560655582	0.5124555305635282	-0.9669110783935628	-0.022558679780567394	0.14684724856611117	-1.1693954225913843	-0.011354079775639686	0.06511828050116694	-1.0022593418131767	0.00986912068496743	0.07165031931836985	-1.0494151224807946	-0.01374454982621353	0.1129722152362292	-1.2242327716530652	0.2282629145889001	1.3373906052903084	-1.0587159752630924	0.3823156431538686	1.529893989275942	-0.9038415580988991	0.3051108456864936	1.3914169677838997	-0.9042400489018542	0.08547039942529888	1.408725493055252	-1.0867050734926778	-0.18201191947375733	1.440347227550235	-1.2111072737203754	-0.2557660502893248	1.6067334344660797	-0.9989710205198815	0.3148523364189182	1.2081561717248244	-1.1472779738167076	0.3593667304075105	0.9089635981889623	-1.0989347839645915	0.3291580879024611	0.6671391814202471	-1.008379540069203
39	0.65	-0.19191338952073428	0.9702720396297906	-1.074714910007428	-0.5000389221591425	0.6848866001410305	-0.9931131207795953	-0.679004143070192	0.3421356581219001	-1.0660994880593422	-0.7333235446437093	0.28068436213020165	-0.9218561930004815	-0.7355130723091352	0.2644049167287366	-1.0143147523664584	-0.6911694973268012	0.30202365233976247	-1.1148899782133008	-0.025154250383897177	0.8658555595055536	-1.1281715691004592	-0.05881813432933835	0.5045251351392518	-0.90020749813213	-0.01386130777013139	0.14245126881310777	-1.1520310702912107	-0.007282977613744675	0.07633058939877974	-1.0025174235433714	0.026665103689793045	0.077092870923279	-1.0347577280626516	-0.005953172725668961	0.1155216631054482	-1.2102603760587887	0.23147988029216887	1.3360559721831498	-1.055083530831798	0.38527920189188314	1.5231137329920947	-0.9043012569308649	0.31574959068201586	1.3868269283185428	-0.8979299386084122	0.08721803957892031	1.4116439247532493	-1.073408275017441	-0.17783114597741176	1.4486971078780861	-1.197861682359375	-0.23768421161487754	1.6095889275917077	-0.9799551824793563	0.34273320147301223	1.2086685842607154	-1.0660760187632827	0.36527525917655285	0.9061324649170496	-1.0940006667224376	0.35073656396574954	0.6608264638315706	-0.9869533323333364
40	0.6666666666666666	-0.19309449906631443	0.9743193368862989	-1.0764277447424542	-0.5103986385948028	0.690013998633818	-0.9763724415844324	-0.7021725430817829	0.3547547968392259	-1.055455851584762	-0.7664777164158503	0.3100952059047036	-0.885997486475404	-0.7623822858045244	0.2796004821024101	-0.9911701178641465	-0.7193442303617793	0.3133199424555051	-1.0985785262573269	-0.025482404202114988	0.8654581792555269	-1.1279139858309477	-0.06500572287177098	0.5084664276923236	-0.9032563463148418	-0.014465269334830872	0.14283362313164447	-1.1534159404263062	-0.007845291091902244	0.07645963964820249	-1.002428005122099	0.02427140903949622	0.07923694816565942	-1.0314117621140486	-0.006593528648603632	0.11474199245422394	-1.210541810096705	0.24332453611648894	1.3387292981824384	-1.012625441217961	0.3927938624131302	1.5235791110936265	-0.8974217595397146	0.3174877287573627	1.389559066064135	-0.8858927173054165	0.0880832543001587	1.4073313319407634	-1.0567746097277602	-0.1788763472452624	1.4532050650603046	-1.1837894979603643	-0.22478836654919437	1.6210922981799993	-0.9576561179247619	0.3435869968109737	1.201677385322544	-1.0493314748376383	0.3686778477124078	0.9012217950461492	-1.0965206550479103	0.3573386697644237	0.6544055171698548	-0.985582398252633
41	0.6833333333333333	-0.1978759178868151	0.9751064676541858	-1.072766913295901	-0.5121990125024359	0.701195430356064	-0.9759160361245225	-0.7286803903251292	0.3636519166695799	-1.0494926177956911	-0.8167007142406171	0.32644592257242167	-0.9472237550963546	-0.7836555219770925	0.2867210046496758	-0.9681692075256122	-0.7408740768635255	0.32710031253111205	-1.0882359771767576	-0.03446758212664796	0.8582765936597186	-1.1190297105804048	-0.06491420924394582	0.508764205539593	-0.9023470757781533	-0.018351011764506868	0.14299869873631055	-1.151749573519671	-0.00934061726630505	0.07329322881120719	-0.998600538992023	0.021640698282591	0.07652529187387251	-1.0368860878154926	-0.00973127948888461	0.11474517323817085	-1.2087316994615036	0.21825598904112056	1.328704483784514	-1.0900948222942386	0.3959619917716629	1.5089496939876132	-0.9291617229573478	0.32701781582582995	1.3780694792529784	-0.8916794516161279	0.0552566551713501	1.3966710353306282	-1.132632324895845	-0.1735057164794289	1.4597901319054147	-1.177593911133814	-0.21336878556475541	1.6259027164875783	-0.9728054188224378	0.3446106194693176	1.1984184020092505	-1.0536648291668629	0.3657500826275478	0.8990053140571933	-1.096262035739678	0.3628601154786228	0.6516349853220086	-0.9913017877355884
42	0.7	-0.19831471901477207	0.9768993947924601	-1.061849453398955	-0.5156281133642835	0.7064100903474665	-0.9614389773767335	-0.7530072438517159	0.3853118425975882	-1.0200474036808207	-0.8084595862469774	0.37246435111682064	-0.8041451369273286	-0.7972706852878655	0.301955787648339	-0.9643537860695031	-0.7538430653822488	0.34351296938596804	-1.0746814524055226	-0.03529182521776855	0.866259379444501	-1.121320154278982	-0.0683847306108213	0.5077362976301999	-0.9002880747082744	-0.01825725849748389	0.14343734989973275	-1.150328258109625	-0.009452065991334684	0.07714913409958801	-0.9915082423804537	0.019985809990744608	0.08010669168715763	-1.0324942464537616	-0.011727258380008002	0.11550214995988323	-1.2027903027307625	0.2395555064307551	1.3200848231118005	-1.0367551632598329	0.4039951101435781	1.5056979691485017	-0.9160381295493861	0.3283190929066113	1.3752780033502516	-0.8759168159946744	0.09647541275940738	1.4054169001042205	-1.0356199265101156	-0.17220426708576583	1.468917676143355	-1.1453685532138296	-0.20439397498740805	1.633143414509564	-0.9664393178481182	0.31486258063563893	1.1878239460733602	-1.1333345621582416	0.37008716630632993	0.8925652476256032	-1.1021065170149735	0.3718466862058233	0.6434313742501995	-0.9913845595750831
43	0.7166666666666667	-0.23497317216865918	0.9762966175051164	-1.14569182365045	-0.5187284980690677	0.7133338850823921	-0.9506210490209352	-0.7746355485827003	0.3929566393934888	-0.995928695144075	-0.8319549330003864	0.39861795844080206	-0.7780147657413128	-0.8148274189986	0.32536292700017855	-0.9447713627705607	-0.7574170903599415	0.3678635180712866	-1.0772734211478474	-0.04398207342364239	0.8593191878431455	-1.112562657151171	-0.06920407089126891	0.5108292973251047	-0.8944713256412443	-0.016053946066000427	0.14636529696819728	-1.1488153750658123	-0.0104067081385507	0.08075823620681047	-0.9992439959573066	0.021114858881723257	0.08339304108054423	-1.0288938042079097	-0.016442735482149123	0.11657674710172222	-1.1953487387220127	0.21711468490223618	1.3149930272314916	-1.0740088425409144	0.41015910813411655	1.4962832769478902	-0.9248742954310962	0.3287717105503177	1.3659326113571646	-0.872232000963998	0.09369708413639385	1.4009452993477864	-1.0277218768793188	-0.1646382847295921	1.4731639969190824	-1.1363228994032857	-0.17732371690459695	1.645643218047519	-0.8911520308470385	0.31478859978519563	1.1878688204812868	-1.1332657474683394	0.3688263011016641	0.8941351137660155	-1.0898098176456716	0.37713557236075296	0.647239870657729	-0.992043966465398
44	0.7333333333333333	-0.20148099342681017	0.9790350613117342	-1.053401111361028	-0.5221411065004482	0.7211747641021813	-0.9327078425924357	-0.7806908934393857	0.40707089056993934	-0.990983872977618	-0.8313090813050064	0.37281238341217876	-0.8282290606913523	-0.827922651870554	0.34019301325404216	-0.9344290279185893	-0.7872777120990753	0.3791761898724211	-1.0227669405355428	-0.04835588319317283	0.8596887559817942	-1.1115813555710412	-0.06873141328750475	0.5101650707768749	-0.89409469678795	-0.017726317942032707	0.1461413876809232	-1.1516611716958258	-0.007824864590017024	0.08060898767418756	-0.9957294096934594	0.021536188222375446	0.08311312603440091	-1.0277326407808673	-0.016865500311238457	0.114820321475132	-1.192302994943656	0.23991584237988164	1.313572173273315	-1.0229012807764448	0.4147784081123988	1.4972795765988802	-0.9275375192027089	0.32148396673858304	1.3612049454907291	-0.8473579129219792	0.09266221320274656	1.403335571051021	-1.022609538682978	-0.16699489526990322	1.4742416148761057	-1.120809217617351	-0.16109239432982425	1.6493303548125555	-0.8831891388873535	0.3149789351773127	1.187954706950836	-1.133259428319762	0.37331224764486365	0.8864836733934093	-1.0968588266548855	0.37531860857888677	0.639481891525927	-0.9893284501728712
